<?xml version="1.0" encoding="UTF-8"?>
<!DOCTYPE svg PUBLIC "-//W3C//DTD SVG 1.1//EN" "http://www.w3.org/Graphics/SVG/1.1/DTD/svg11.dtd">
<!-- Creator: CorelDRAW 2021 (64-Bit) -->
<svg xmlns="http://www.w3.org/2000/svg" xml:space="preserve" width="51.6533mm" height="45.7303mm" version="1.1" style="shape-rendering:geometricPrecision; text-rendering:geometricPrecision; image-rendering:optimizeQuality; fill-rule:evenodd; clip-rule:evenodd"
viewBox="0 0 46.27 40.96"
 xmlns:xlink="http://www.w3.org/1999/xlink"
 xmlns:xodm="http://www.corel.com/coreldraw/odm/2003">
 <defs>
  <style type="text/css">
   <![CDATA[
    .fil3 {fill:#F8F8F9}
    .fil1 {fill:#DAD9D9}
    .fil4 {fill:#717272}
    .fil2 {fill:#3D3D3D}
    .fil0 {fill:#211D21}
   ]]>
  </style>
 </defs>
 <g id="Layer_x0020_1">
  <metadata id="CorelCorpID_0Corel-Layer"/>
  <g id="_1488346184864">
   <path class="fil0" d="M40.57 24.51l-7.01 0 0.17 0.98c0.03,0.37 0.17,0.6 0.38,0.84 0.07,0.08 0.13,0.21 0.18,0.27 0.23,0.3 0.62,0.52 0.95,0.77 -1.1,-0.14 -2.35,-0.06 -3.48,-0.06 -0.44,0 -0.68,-0.08 -1.14,-0.08 -1.37,0.01 -3.49,0.12 -4.77,-0.02 0.7,-0.88 1.36,-1.64 1.27,-2.85 -0.72,-0.06 -1.28,0.18 -1.51,-0.31 -0.21,-0.46 -0.14,-0.99 -0.32,-1.5 -0.2,-0.53 -0.47,-0.94 -0.84,-1.36 -1.4,-1.58 -3.6,-0.3 -4.04,1.5 -0.16,0.67 -0.25,0.6 -0.25,1.42 -0,1 0.29,1.68 0.77,2.49 0.07,0.11 0.36,0.38 0.52,0.6 -1.89,0.19 -4.33,-0.17 -6.13,0.08 0.12,-0.17 0.14,-0.13 0.25,-0.25 0.05,-0.05 0.2,-0.23 0.25,-0.28 0.26,-0.31 0.5,-0.65 0.64,-1.02 0.08,-0.21 0.1,-0.24 0.14,-0.46 0.02,-0.09 0.06,-0.36 0.09,-0.44 0.08,-0.21 0.14,-0.11 0.11,-0.47l-1.41 -0.02c-0.4,-0.46 -0.34,-1.48 -0.76,-2.21 -0.47,-0.82 -0.13,-0.28 -0.59,-0.85 -1,-1.22 -2.92,-0.86 -3.66,0.42 -0.21,0.36 -0.27,0.32 -0.41,0.73 -0.13,0.39 -0.21,0.3 -0.28,0.78 -0.23,1.49 -0.07,1.8 0.3,2.87 0.19,0.55 0.66,0.85 0.97,1.28l-4.39 0.1c-0.34,0.06 -0.06,0.13 -0.53,0.15 -0.85,0.03 -1.66,0.03 -2.51,0.07l-2.27 0.31c0.01,0.55 0.26,0.38 0.98,0.46 0.27,0.03 0.34,0.07 0.69,0.07 0.58,-0.01 0.6,0.15 1.29,0.15 0.34,-0 0.4,0.06 0.68,0.08 0.47,0.04 1.06,-0.05 1.51,0.01 0.69,0.08 1.42,0.02 2.13,0.07 0.28,0.02 0.34,0.08 0.68,0.08 0.96,0 2.01,-0.04 2.96,-0 0.3,0.01 0.31,0.07 0.6,0.08l2.13 -0c0.3,-0.02 0.42,0.06 0.61,0.06 0.17,0 0.4,-0.07 0.68,-0.07 0.34,0.01 0.35,0.08 0.63,0.04 1.16,-0.16 1.27,0.08 1.64,0.12l10.09 0c0.42,-0.04 0.11,-0.14 0.6,-0.16 1.47,-0.06 3,-0 4.48,0.01 0.48,0 0.9,-0.08 1.44,-0.08 0.73,0 2.31,0.08 2.93,-0.03 0.8,-0.14 3.63,-0.05 4.27,-0.13 0.28,-0.03 0.34,-0.07 0.69,-0.07 1,0.01 0.68,-0.16 1.37,-0.15 0.34,0.01 0.4,-0.01 0.7,-0.06 0.32,-0.05 1.04,0.04 1.2,-0.33 -0.16,-0.2 -0.22,-0.17 -0.43,-0.25 -0.26,-0.1 -1.88,-0.2 -2.23,-0.2 -0.43,0 -0.62,-0.05 -0.99,-0.08 -0.48,-0.04 -1.04,0.06 -1.52,0 -0.47,-0.06 0.09,-0.16 -1.44,-0.15 -0.44,0 -0.58,-0.05 -0.98,-0.1 0.32,-0.18 0.4,-0.21 0.69,-0.42 0.32,-0.22 0.39,-0.26 0.6,-0.61 0.25,-0.4 0.27,-0.33 0.41,-0.8 0.09,-0.29 0.15,-0.72 0.18,-1.03zm-16.89 0.63c-0.6,0.22 -0.98,0.09 -1.15,-0.49 -0.08,-0.28 -0.1,-0.56 -0.05,-0.85 0.03,-0.16 0.02,-0.22 0.09,-0.37 0.38,-0.81 1.09,-0.58 1.3,0.11 0.23,0.76 0.04,0.97 -0.19,1.61zm-11.1 0.13c-0.91,-0.25 -0.78,-2.25 0,-2.35 0.35,0 0.52,0.08 0.68,0.31 0.29,0.41 0.26,1.22 0.04,1.7 -0.15,0.31 -0.34,0.34 -0.72,0.34z"/>
   <path class="fil0" d="M12.82 3.35c-0.11,0.21 -0.16,0.27 -0.38,0.37l-6.66 0.02c-0.12,0.02 -0.28,0.08 -0.37,0.16 -0.06,0.06 -0.23,0.28 -0.26,0.35 -0.07,0.17 -0.07,0.26 -0.04,0.44 0.1,0.51 0.46,0.71 0.96,0.71l7.97 -0c0.49,0.07 0.64,0.61 0.42,1.21 -0.24,0.46 -1.16,0.28 -1.63,0.28 -1.2,-0.01 -4.7,-0.07 -5.47,0.03l0.04 1.56c0.91,0.16 4.19,-0.13 4.67,0.1l0.41 0.2c0.13,0.39 0.21,0.66 -0.1,0.94l-0.23 0.22c-0.76,0 -4.46,-0.09 -4.88,0.05 -0.04,0.13 0.02,1.41 0.08,1.57 0.37,0.12 5.24,0.05 6.32,0.05 0.76,-0 1.35,-0.09 1.37,0.83 -0.06,0.53 -0.66,0.61 -1.06,0.61l-8.57 -0c-1.17,0.01 -1.28,1.59 -0.07,1.67l4.62 -0c0.56,-0.02 1.18,0 1.75,0 2.3,0 4.6,0 6.9,0l0.08 -2.58c-0.01,-0.33 -0.08,-0.5 -0.08,-0.91l0.04 -10.74c-0.01,-0.15 -0.04,-0.28 -0.04,-0.48 -1.34,0.32 -4.79,-0.08 -6.38,0.14l-1.17 0.34c-0.22,0.09 -0.16,0.15 -0.47,0.29 -0.47,0.21 -1.36,0.98 -1.44,1.49 0.98,0.08 3.22,-0.17 3.52,0.27l0.05 0.1c0.19,0.32 0.13,0.3 0.13,0.71z"/>
   <path class="fil0" d="M36.78 19.33c-0.08,-0.42 0.21,-1.17 0.46,-1.42 0.51,-0.51 1.28,-0.9 2.02,-0.67 0.29,0.09 0.9,0.45 1.15,0.83 0.4,0.62 0.44,1.99 -0.48,2.6l-0.14 0.09c-0.01,0.01 -0.03,0.03 -0.04,0.04 -0.25,0.19 -0.42,0.22 -0.77,0.22 -0.82,0.01 -0.87,0.01 -1.49,-0.41l-0.24 -0.21c-0.01,-0.01 -0.17,-0.31 -0.19,-0.34 -0.14,-0.28 -0.21,-0.37 -0.28,-0.72zm-1.74 -0.21c-0.32,0.8 -0.16,0.92 -0.57,1.34 -1.01,1.01 -3.31,0.86 -3.3,-1.41 0,-1.54 1.92,-2.57 3.23,-1.26 0.31,0.31 0.2,0.17 0.39,0.6 0.19,0.42 -0.02,0.36 0.26,0.73zm-6.6 -6.52c0.39,0.84 0.81,1.73 0.97,2.67 0.06,0.38 0.13,0.37 0.17,0.59 0.1,0.6 -0.18,6.45 0.05,7.15 0.39,0.13 11.24,0.05 12.62,0.05 0,-2.05 0,-4.1 0,-6.14 0,-1 0.12,-1.79 -0.43,-2.6 -0.21,-0.3 -0.33,-0.5 -0.7,-0.81 -0.25,-0.21 -0.16,-0.2 -0.42,-0.34 -0.63,-0.32 -1.08,-0.57 -1.77,-0.58 -0.52,-0 -0.9,-0.07 -1.44,-0.07l-4.47 0c-0.46,0 -1.08,-0.04 -1.52,0 -0.28,0.02 -0.31,0.08 -0.68,0.08l-2.35 -0z"/>
   <path class="fil0" d="M20.1 0.09c0.14,0.34 0.23,0.05 0.83,0.38l1.19 0.7c0.47,0.3 0.27,0.19 0.7,0.59 0.51,0.47 0.79,0.81 1.1,1.41 0.16,0.32 0.13,0.06 0.29,0.39 0.05,0.11 0.13,0.35 0.17,0.44l0.67 1.3 11.2 0.02c-0.01,-0.53 -0.14,-0.44 -0.34,-0.95l-0.73 -1.32c-0.09,-0.14 -0.17,-0.31 -0.25,-0.43 -0.16,-0.22 -0.15,-0.09 -0.33,-0.36 -0.19,-0.29 -1.18,-1.18 -1.42,-1.31 -0.66,-0.33 -0.57,-0.39 -1.44,-0.61 -0.5,-0.13 -0.47,-0.25 -1.11,-0.26 -0.39,-0.01 -0.36,-0.08 -1.21,-0.08l-5.38 0.08c-0.55,0 -1.24,-0.11 -1.97,-0.08 -0.32,0.01 -0.27,0.07 -0.6,0.08 -0.44,0.01 -0.92,-0 -1.37,-0z"/>
   <path class="fil0" d="M19.94 13.36l-0 1.29c0.39,0.23 3.26,0.08 3.95,0.08l0 1.37c-0.69,0 -3.62,-0.09 -4.05,0.05 -0.02,0.16 -0.07,0.05 0.1,0.1l0 4.47c0.41,-0.69 1.04,-0.94 1.71,-1.31 0.71,-0.39 2.26,-0.24 3.07,0.4l0.23 0.15c0.07,0.05 0.14,0.12 0.2,0.18 1.17,1.19 0.66,0.87 1.01,1.26 0.19,0.22 0.59,1.51 0.7,1.66l1.42 0.02c0,-0.9 0.09,-6.99 -0.08,-7.65 -0.08,-0.31 -0,-0 -0.13,-0.25 -0.12,-0.23 -0.1,-0.6 -0.32,-1.12 -0.1,-0.24 -0.16,-0.17 -0.26,-0.5 -0.43,-1.47 -0.63,-0.93 -2.17,-0.94 -1.35,-0.01 -4.34,-0.07 -5.37,0.01l-0.02 0.75z"/>
   <path class="fil0" d="M9.15 21.22l0.07 -0.07 0.02 -0.08 0.01 -0.19c0.45,-0.16 0.47,-0.82 1.77,-1.34 0.26,-0.1 0.41,-0.31 1.26,-0.34 0.54,-0.02 1.4,0.25 1.84,0.51 0.24,0.14 0.04,0.06 0.2,0.18 0.46,0.35 0.68,0.36 1.21,1.22 0.22,0.35 0.15,-0.01 0.43,0.78l0.43 1.16 2.18 0.02 0 -6.9 -9.56 0c-0.09,0.63 -0.02,2.93 -0.03,3.86 -0,0.71 -0.12,1.03 0.16,1.19z"/>
   <path class="fil0" d="M19.94 8.12l-0 1.52 0 1.59 6.45 0c-0.05,-0.54 -1.12,-2.4 -1.35,-2.89 -0.1,-0.22 -0.13,-0.43 -0.25,-0.66 -0.14,-0.23 -0.15,-0.22 -0.29,-0.55 -0.05,-0.12 -0.1,-0.22 -0.14,-0.3 -0,-0.01 -0.01,-0.03 -0.02,-0.04 -0.27,-0.44 -3.6,-0.19 -4.39,-0.19l-0 1.52z"/>
   <path class="fil0" d="M7.05 36.94l1.52 0 0.01 -2.65 1.13 2.64 1.59 0.01c-0.03,-0.31 -1.01,-2.28 -1.22,-2.65 0.2,-0.72 1.05,-1.66 1.22,-2.28l-1.44 0 -1.27 2.12 -0.02 -2.12 -1.52 0 0 4.93z"/>
   <path class="fil0" d="M18.05 35.65c0,1.06 0.96,1.47 1.8,1.07 -0.09,0.75 -0.8,0.69 -1.26,0.61l-0.01 1.19c0.42,0.04 0.21,0.09 0.83,0.09 0.95,0 1.82,-0.87 1.82,-1.82l0 -3.49 -1.29 0c0,0.67 0.11,1.87 -0.17,2.26l-0.35 -0.06 -0.01 -2.19 -1.37 0 0 2.35z"/>
   <path class="fil0" d="M34.49 36.93l0.01 -1.35c-0.34,0.16 -0.5,0.06 -0.74,-0.18l-0.02 -0.49c0.21,-0.2 0.29,-0.26 0.53,-0.33 0.66,0.38 0.45,0.8 0.45,2.36l1.37 0c0,-0.95 0.19,-2.23 -0.33,-3.01 -0.49,-0.73 -1.7,-0.89 -2.41,-0.5 -1.82,1 -0.97,3.87 1.14,3.49z"/>
   <path class="fil0" d="M28.22 11.3c0.73,0.06 1.33,-0 2.02,-0.08l1.95 -2c0.21,-0.18 0.11,-0.06 0.3,-0.31 0.16,-0.21 0.14,-0.11 0.29,-0.24 0.17,-0.15 0.1,-0.18 0.27,-0.33 0.65,-0.56 1.47,-1.5 1.75,-1.71 -3.12,-0.03 -1.78,-0.16 -3.26,1.04l-2.26 2.37c-0.33,0.33 -1,0.82 -1.07,1.26z"/>
   <path class="fil0" d="M11.75 35.5c0,2.1 3.19,1.98 3.19,-0.08l0 -2.05 -1.37 0c0,1.68 0.22,2.49 -0.44,2.26l-0.01 -2.26 -1.37 0 0 2.12z"/>
   <path class="fil0" d="M27.32 10.08c0.35,0.01 0.94,-0.7 0.97,-0.74 0.48,-0.7 1.12,-1.16 1.69,-1.8l0.42 -0.42c0.26,-0.28 0.3,-0.11 0.4,-0.51l-5.16 0c0.1,0.36 0.56,1.13 0.62,1.28l1.07 2.19z"/>
   <path class="fil0" d="M19.94 2.13l0 0.83 0 2.35 3.64 0c-0.05,-0.48 -0.04,0.09 -0.28,-0.63 -0.27,-0.83 -1.25,-2.23 -2.02,-2.6 -0.11,-0.05 -0.24,-0.1 -0.31,-0.15 -0.7,-0.5 -0.65,-0.14 -0.96,-0.5 -0.19,0.23 -0.01,0.07 -0.22,0.18 0.17,0.13 0.15,0.07 0.14,0.51z"/>
   <path class="fil0" d="M24.88 36.57c-0.06,-0.21 -0.53,-0.72 -0.71,-0.9 -1,0.5 -1.06,-0.58 -0.86,-1.05 0.18,-0.43 0.87,-0.48 0.87,0.04l-0.66 0.02 -0.01 0.67 2.03 0.01c0.21,-2.53 -2.66,-2.6 -3.42,-1.24 -1.1,1.95 1.18,3.69 2.76,2.46z"/>
   <path class="fil0" d="M32 11.15c0.06,0.05 -0.02,0.16 0.34,0.12 0.21,-0.02 0.34,-0.04 0.58,-0.03 0.37,0 0.76,0.02 1.12,-0.02 0.21,-0.27 0.53,-0.59 0.79,-0.8l2.42 -2.59c-0.05,-0.19 -0.14,-0.53 -0.24,-0.68 -0.2,-0.33 -0.18,-0.39 -0.37,-0.54 -0.3,0.1 -4.35,4.16 -4.64,4.55z"/>
   <path class="fil0" d="M28.06 36.94l1.52 0 0 -1.74c0.14,-0.69 0.38,0.77 0.38,-1.14 0,-0.71 -0.38,0.1 -0.38,-0.61l0 -1.44 -1.52 0 0 4.93z"/>
   <path class="fil0" d="M39.21 35.2c0,1.03 0.77,1.76 1.96,1.74l0.01 -1.42c-0.53,-0.04 -0.63,-0.14 -0.59,-0.68l0.58 -0.02 0.01 -1.42 -0.59 -0.02 -0.01 -1.36 -1.37 0 0 3.19z"/>
   <path class="fil0" d="M36.71 34.97c0,1.13 0.68,1.99 1.96,1.97l0.01 -1.42c-0.48,-0.04 -0.62,-0.2 -0.59,-0.68l0.58 -0.02 0.01 -1.42 -0.59 -0.02 -0.01 -1.36 -1.37 0 0 2.96z"/>
   <polygon class="fil0" points="30.18,36.94 31.32,36.94 31.65,36.91 31.71,36.57 31.7,32.01 30.18,32.01 "/>
   <path class="fil0" d="M0.02 7.31c-0.06,0.52 -0.01,1.18 0.66,1.27 0.81,0 1.7,0.03 2.51,0 1.2,-0.04 1.36,-1.61 0.06,-1.81l-2.42 0.06c-0.4,0 -0.62,0.17 -0.81,0.48z"/>
   <path class="fil0" d="M15.7 36.94l1.37 0c0,-0.72 -0.11,-1.58 0.13,-2.23l0.47 -0.06c0.03,-0.41 0.09,-0.99 -0.04,-1.38 -0.66,-0.22 -1.54,0.24 -1.78,0.92 -0.21,0.59 -0.14,2.03 -0.14,2.74z"/>
   <polygon class="fil0" points="41.79,36.94 43.15,36.94 43.15,33.3 41.79,33.3 "/>
   <path class="fil0" d="M37.09 9.95c-0.13,0.22 -0.43,0.46 -0.62,0.67 -0.1,0.11 -0.23,0.24 -0.34,0.35 -0.23,0.22 -0.36,0.16 -0.18,0.3 0.8,0.06 1.96,-0.03 2.88,-0.03l-0.83 -1.76 -0.07 -0.15 -0.12 -0.02c-0.18,0.2 -0.49,0.54 -0.72,0.65z"/>
   <path class="fil1" d="M12.05 8.58c-0.48,-0.23 -3.76,0.06 -4.67,-0.1l-0.04 -1.56c0.77,-0.09 4.26,-0.03 5.47,-0.03 0.47,0 1.39,0.18 1.63,-0.28 -0.45,0.24 -0.28,0.13 -0.79,0.16 -1.16,0.07 -5.79,-0.16 -6.4,0.04 -0.07,0.2 -0.15,1.46 0.06,1.66 0.22,0.21 1.92,0.11 2.32,0.11 0.81,0 1.61,0 2.42,0z"/>
   <path class="fil1" d="M9.15 21.22l0.07 -0.07 0.02 -0.08 -0.02 0.08 -0.07 0.07c-0.28,-0.16 -0.16,-0.48 -0.16,-1.19 0,-0.93 -0.06,-3.23 0.03,-3.86l9.56 -0c-0.28,-0.19 -4.14,-0.08 -4.78,-0.08 -1.64,0 -3.29,0 -4.93,0l0 5.22 0.28 -0.09z"/>
   <path class="fil1" d="M33.74 25.49l-0.17 -0.98 7.01 -0 -0.09 -0.14c-0.82,-0.09 -6.21,-0.06 -6.95,0.08 -0.04,0.45 0.04,0.61 0.06,0.98l0.15 0.07z"/>
   <path class="fil2" d="M25.8 39.54l0.27 -0.26c1.2,0.33 -0.45,1.82 -0.27,0.26zm0.34 1.42l-0.05 0c-0.22,-0.01 -0.42,-0.19 -0.44,-0.29 0.51,0.08 0.86,0.18 0.8,-0.46 -0.81,0.58 -1.3,-0.53 -0.44,-1.07 0.3,0.04 0.16,0.05 0.36,0.1 0.16,0.04 0.07,-0 0.32,-0.01 0.1,1.35 -0.23,1.71 -0.54,1.73z"/>
   <path class="fil2" d="M39.37 39.23c-0.02,0.2 -0.01,0.39 -0.01,0.59 -0.01,0.39 -0.09,0.42 0.16,0.54 0.13,-0.23 0.05,-0.59 0.09,-0.9l0.33 -0.18c0.51,0.54 -0.13,0.87 0.34,1.08 0.24,-0.44 -0.18,-0.72 0.29,-1.07 0.61,0.18 0.12,0.62 0.39,1.08 0.14,-0.24 0.09,-0.74 0.06,-1.06l-0.43 -0.21 -0.26 0.25 -0.34 -0.23c-0.44,0.13 -0.16,0.11 -0.6,0.1z"/>
   <path class="fil2" d="M30.01 39.31c0.21,0.13 0.19,0.1 0.23,0.35l-0.58 0.01c0.01,-0.31 0.08,-0.32 0.35,-0.36zm-0.34 1.02c0.81,0.1 0.61,-0 0.67,-0.14 -0.24,-0.09 -0.67,0.15 -0.68,-0.36l0.73 -0.02 0.01 -0.43c-0.71,-0.69 -1.35,0.34 -0.73,0.95z"/>
   <path class="fil2" d="M41.92 40.18l-0.35 0.02c-0.03,-0.45 0.1,-0.37 0.5,-0.44 -0,0.2 -0,0.26 -0.16,0.42zm-0.49 -0.75l0.48 -0.16 0.18 0.3c-0.36,0.14 -0.43,0.03 -0.74,0.27 -0.04,0.33 -0.03,0.22 0.07,0.5 0.81,0.06 0.25,-0.17 0.81,0 0.03,-0.39 0.05,-0.76 -0.08,-1.11 -0.31,-0.11 -0.67,-0.15 -0.73,0.21z"/>
   <path class="fil2" d="M36.53 39.31c0.21,0.13 0.19,0.1 0.23,0.35l-0.58 0.01c0.01,-0.31 0.08,-0.32 0.35,-0.36zm-0.34 1.02c0.81,0.1 0.61,-0 0.67,-0.14 -0.15,-0.05 -0.01,-0.01 -0.24,-0 -0.17,0.01 -0.2,0.01 -0.36,-0.01l-0.16 -0.34 0.81 -0.02 0.01 -0.43c-0.71,-0.69 -1.35,0.34 -0.73,0.95z"/>
   <path class="fil2" d="M30.73 39.23c-0.02,0.2 -0.01,0.39 -0.01,0.59 -0.01,0.39 -0.09,0.42 0.16,0.54 0.13,-0.23 0.05,-0.59 0.09,-0.9 0.73,-0.58 0.49,0.6 0.66,0.9 0.13,-0.23 0.09,-0.68 0.06,-0.98l-0.27 -0.26c-0.35,0.05 -0.12,0.05 -0.36,0.11 -0.16,0.04 -0.07,-0 -0.32,-0.01z"/>
   <path class="fil2" d="M27.17 40.34c0.78,0.09 0.24,-0.17 0.8,0.01 0.03,-0.34 0.09,-0.88 -0.06,-1.14 -0.22,0.38 0.11,0.53 -0.25,0.98l-0.39 -0c-0.12,-0.39 0.04,-0.68 -0.12,-0.97 -0.11,0.05 -0.19,-0.11 -0.16,0.54 0.01,0.24 0.04,0.4 0.18,0.59z"/>
   <path class="fil2" d="M37.15 39.44c0.16,0.61 0.52,0.23 0.59,0.67 -0.21,0.15 -0.34,0.14 -0.57,0.03 -0,0.35 0.14,0.34 0.73,0.13 0.04,-0.84 -0.35,-0.26 -0.52,-0.83 0.45,-0.35 0.15,0.08 0.55,-0.15 -0.25,-0.31 -0.58,-0.11 -0.78,0.15z"/>
   <path class="fil2" d="M32.77 40.36c0.13,-0.23 0.13,-1.53 0,-1.76 -0.19,0.09 -0.14,-0.11 -0.17,0.3l0 1.08c0,0.42 -0.06,0.28 0.16,0.38z"/>
   <path class="fil2" d="M38.38 40.36c0.13,-0.23 0.13,-1.53 0,-1.76 -0.21,0.1 -0.16,-0.2 -0.16,0.84 0,0.98 -0.1,0.8 0.16,0.92z"/>
   <path class="fil2" d="M35.1 39.29c0.35,0.3 -0.04,1.42 0.71,0.99 -0.04,-0.02 -0.48,0.03 -0.32,-0.76 0.13,-0.31 -0.05,-0.02 0.32,-0.23l-0.3 -0.09c-0.02,-0.28 0.03,-0.17 -0.09,-0.38 -0.33,0.31 0.04,0.17 -0.32,0.47z"/>
   <path class="fil2" d="M28.83 40.36l0.46 -1.12c-0.37,0.06 -0.36,0.58 -0.53,0.88 -0.07,-0.18 -0.12,-0.32 -0.19,-0.5 -0.12,-0.32 -0.04,-0.38 -0.34,-0.39 0.11,0.28 0.25,1.03 0.6,1.13z"/>
   <path class="fil1" d="M37.09 9.95c-0.29,0.07 -0.49,0.37 -0.7,0.58 -0.22,0.22 -0.57,0.44 -0.57,0.76l0.14 -0.04c-0.18,-0.13 -0.05,-0.08 0.18,-0.3 0.11,-0.1 0.24,-0.24 0.34,-0.35 0.2,-0.21 0.49,-0.44 0.62,-0.67 0.23,-0.11 0.54,-0.45 0.72,-0.65l0.12 0.02 0.07 0.15 -0.07 -0.15 -0.06 -0.15c-0.28,0.09 -0.71,0.51 -0.78,0.78z"/>
   <path class="fil2" d="M33.76 39.23c-0.02,0.2 -0.01,0.39 -0.01,0.59 -0.01,0.39 -0.09,0.42 0.16,0.54 0.19,-0.35 -0.08,-0.73 0.19,-0.95 0.24,-0.19 0.1,0.17 0.26,-0.2 -0.37,-0.18 0.22,0.03 -0.6,0.02z"/>
   <path class="fil2" d="M42.46 39.29c0.28,0.17 0.23,-0.1 0.26,1.01 0.29,0.09 0.25,0.09 0.45,-0.03l-0.31 -0.15c-0.02,-1 -0.03,-0.64 0.31,-0.84l-0.3 -0.09 -0.04 -0.36c-0.3,0.44 0.1,0.16 -0.37,0.45z"/>
   <path class="fil3" d="M19.94 9.64l0 -1.52c-0.23,0.06 -0.09,-0.08 -0.15,0.15l0 1.21c0.06,0.24 -0.05,0.07 0.15,0.15z"/>
   <path class="fil3" d="M19.94 14.65l0 -1.29c-0.22,0.06 -0.09,-0.07 -0.15,0.15l0 0.99c0.06,0.24 -0.05,0.07 0.14,0.15z"/>
   <path class="fil2" d="M38.91 40.37c0.14,-0.24 0.14,-0.92 0,-1.16 -0.13,0.25 -0.14,0.92 0,1.16z"/>
   <path class="fil0" d="M32.16 40.37c0.14,-0.24 0.14,-0.92 0,-1.16 -0.13,0.25 -0.14,0.92 0,1.16z"/>
   <path class="fil0" d="M33.29 40.37c0.14,-0.24 0.14,-0.92 0,-1.16 -0.13,0.25 -0.14,0.92 0,1.16z"/>
   <path class="fil3" d="M19.94 2.97l-0 -0.83c-0.22,0.06 -0.08,-0.08 -0.15,0.15l0 0.53c0.06,0.24 -0.05,0.07 0.15,0.15z"/>
   <path class="fil2" d="M32.05 38.87c0.26,0.07 0.32,-0.01 0.16,-0.23 -0.11,0.03 -0.2,-0.01 -0.16,0.23z"/>
   <path class="fil1" d="M12.44 3.72c0.22,-0.1 0.27,-0.16 0.38,-0.37 -0.24,0.06 -0.31,0.13 -0.38,0.37z"/>
   <path class="fil2" d="M33.29 38.93c0.23,-0.19 0.2,-0.09 0.05,-0.3 -0.18,0.17 -0.17,0.09 -0.05,0.3z"/>
   <path class="fil2" d="M38.91 38.93c0.23,-0.19 0.2,-0.09 0.05,-0.3 -0.18,0.17 -0.17,0.09 -0.05,0.3z"/>
   <path class="fil2" d="M27.15 38.84c0.14,0.21 0.01,0.1 0.21,0.14l0.01 -0.2c-0.08,0.01 -0.18,0.01 -0.22,0.06z"/>
   <polygon class="fil4" points="27.69,38.99 27.85,38.79 27.62,38.77 "/>
  </g>
 </g>
</svg>
